<?xml version="1.0" encoding="utf-8"?>
<!-- Generator: Adobe Illustrator 19.1.0, SVG Export Plug-In . SVG Version: 6.00 Build 0)  -->
<!DOCTYPE svg PUBLIC "-//W3C//DTD SVG 1.1//EN" "http://www.w3.org/Graphics/SVG/1.1/DTD/svg11.dtd">
<svg version="1.1" id="Layer_1" xmlns="http://www.w3.org/2000/svg" xmlns:xlink="http://www.w3.org/1999/xlink" x="0px" y="0px"
	 viewBox="0 0 63.5 72.7" enable-background="new 0 0 63.5 72.7" xml:space="preserve">
<g>
	
		<path fill="none" stroke="#000000" stroke-width="1.7465" stroke-linecap="round" stroke-linejoin="round" stroke-miterlimit="10" d="
		M60.4,43.8c-3.2-3.3-11.1-1.8-13.5,1.8"/>
	
		<path fill="none" stroke="#000000" stroke-width="1.0836" stroke-linecap="round" stroke-linejoin="round" stroke-miterlimit="10" d="
		M49.3,45.4c2.5,2.4,6.4,2.4,8.8-0.1"/>
	
		<circle fill="none" stroke="#000000" stroke-width="1.2225" stroke-linecap="round" stroke-linejoin="round" stroke-miterlimit="10" cx="53.7" cy="44.1" r="1.9"/>
	
		<path fill="none" stroke="#000000" stroke-width="1.7465" stroke-linecap="round" stroke-linejoin="round" stroke-miterlimit="10" d="
		M42.2,39.5c0,0-7.2,7-9.6,9.5c-2.5,2.5-6.9,4.2-11.5,3.3c-4.3-0.9-7-4.1-8.1-7.4"/>
	
		<path fill="none" stroke="#000000" stroke-width="1.2225" stroke-linecap="round" stroke-linejoin="round" stroke-miterlimit="10" d="
		M35.3,60.5L35.3,60.5c1.4,0.4,2.9,0.6,4.4,0.6l3.4,0.2l3.4-0.2c1.5-0.1,3-0.3,4.4-0.6l0,0"/>
	
		<path fill="none" stroke="#000000" stroke-width="1.7465" stroke-linecap="round" stroke-linejoin="round" stroke-miterlimit="10" d="
		M62.6,41.1V53c0,2.8-1.1,5.5-3.1,7.5l-8.2,8.2c-2,2-4.7,3.1-7.4,3.1h-1.6c-2.8,0-5.5-1.1-7.4-3.1l-8.2-8.3
		c-1.4-1.5-2.4-3.3-2.8-5.3"/>
	
		<path fill="none" stroke="#000000" stroke-width="1.0479" stroke-linecap="round" stroke-linejoin="round" stroke-miterlimit="10" d="
		M40.4,62.7L40.4,62.7c1.8,0.7,3.7,0.7,5.5,0l0,0"/>
	
		<path fill="none" stroke="#000000" stroke-width="2.1673" stroke-linecap="round" stroke-linejoin="round" stroke-miterlimit="10" d="
		M43.8,34.4"/>
	
		<path fill="none" stroke="#000000" stroke-width="1.7439" stroke-linecap="round" stroke-linejoin="round" stroke-miterlimit="10" d="
		M44.3,41.2c0-5.5,4.1-9.9,9.2-9.9c5,0,9.1,4.4,9.1,9.9"/>
	<g>
		<path d="M45.2,41.5c0,0,0,1.1,0,2.9c0,0.5,0,0.8,0.1,1.3c0.1,0.5,0.1,0.9,0.3,1.4c0.3,1,0.7,2,1.3,2.9c0.3,0.5,0.6,0.9,0.9,1.3
			l0.3,0.3c0.1,0.1,0.2,0.3,0.3,0.5c0.2,0.3,0.3,0.7,0.3,1c0.1,0.7-0.2,1.4-0.6,1.9c-0.4,0.5-0.9,0.9-1.5,1
			c-0.3,0.1-0.5,0.1-0.8,0.1c-0.3,0-0.5-0.1-0.6,0c-0.3,0-0.5,0-0.7,0.1c-0.3,0.1-0.5,0.3-0.5,0.3c-0.2,0.2-0.6,0.2-0.9,0
			c-0.2-0.2-0.2-0.6,0-0.9c0,0,0,0,0,0l0.1-0.1c0,0,0.1-0.1,0.2-0.2c0.1-0.1,0.3-0.2,0.6-0.4c0.3-0.1,0.7-0.2,1.1-0.2
			c0.3,0,0.5,0,0.6,0c0.1,0,0.3,0,0.4-0.1c0.6-0.2,1.1-0.8,1-1.6c0-0.2-0.1-0.4-0.2-0.5c-0.1-0.1-0.1-0.1-0.1-0.2l-0.3-0.3
			c-0.4-0.5-0.8-0.9-1.1-1.4c-0.7-1-1.2-2.2-1.5-3.3c-0.2-0.6-0.3-1.1-0.4-1.6c-0.1-0.5-0.1-1.1-0.1-1.5c0-1.7,0-2.9,0-2.9
			c0-0.5,0.4-0.9,0.9-0.9C44.8,40.6,45.2,41,45.2,41.5C45.2,41.4,45.2,41.5,45.2,41.5z"/>
	</g>
	
		<path fill="none" stroke="#000000" stroke-width="1.7465" stroke-linecap="round" stroke-linejoin="round" stroke-miterlimit="10" d="
		M35.2,5.7c5.3-5.3,13.1-6.3,19.6-2.5c4.8,2.8,7.9,8.7,7.5,14.9C62,24.3,57.1,29.8,53,31.3c5.6-2.5,6.2-9.6,2.3-13.3
		c-4-3.7-9-2.2-12.1,0.8c-4.1,4-16.6,16.6-18.1,18.1c-3.4,3.4-6.6,5.3-10.9,5.3c-9,0-12.9-7.2-13.3-11.6c3.3,1.4,7.9,1.4,12.3-3.1
		C14.9,25.8,33.2,7.7,35.2,5.7z"/>
	
		<path fill="none" stroke="#FF0000" stroke-width="2.1673" stroke-linecap="round" stroke-linejoin="round" stroke-miterlimit="10" d="
		M43.8,34.4"/>
</g>
</svg>
